<mxfile host="app.diagrams.net" agent="Mozilla/5.0 (Windows NT 10.0; Win64; x64) AppleWebKit/537.36 (KHTML, like Gecko) Chrome/140.0.0.0 Safari/537.36" version="28.2.3">
  <diagram name="Page-1" id="8G4Aq1uc0J_2ds-W9Oj7">
    <mxGraphModel grid="1" page="1" gridSize="10" guides="1" tooltips="1" connect="1" arrows="1" fold="1" pageScale="1" pageWidth="850" pageHeight="1100" math="0" shadow="0">
      <root>
        <mxCell id="0" />
        <mxCell id="1" parent="0" />
        <mxCell id="iuHo2Aqis808Pn7AMfoR-1" value="" style="rounded=1;whiteSpace=wrap;html=1;fillColor=none;dashed=1;strokeColor=#656565;" vertex="1" parent="1">
          <mxGeometry x="80" y="30" width="120" height="480" as="geometry" />
        </mxCell>
        <mxCell id="iuHo2Aqis808Pn7AMfoR-2" value="&lt;font style=&quot;font-size: 24px;&quot;&gt;Source&lt;/font&gt;" style="rounded=0;whiteSpace=wrap;html=1;fillColor=default;strokeColor=none;" vertex="1" parent="1">
          <mxGeometry x="95" y="12.5" width="90" height="30" as="geometry" />
        </mxCell>
        <mxCell id="iuHo2Aqis808Pn7AMfoR-9" value="&lt;span style=&quot;color: rgba(0, 0, 0, 0); font-family: monospace; font-size: 0px; text-align: start; text-wrap-mode: nowrap;&quot;&gt;%3CmxGraphModel%3E%3Croot%3E%3CmxCell%20id%3D%220%22%2F%3E%3CmxCell%20id%3D%221%22%20parent%3D%220%22%2F%3E%3CmxCell%20id%3D%222%22%20value%3D%22Bronze%20Layer%22%20style%3D%22rounded%3D0%3BwhiteSpace%3Dwrap%3Bhtml%3D1%3BfillColor%3D%23fff2cc%3BstrokeColor%3D%23d6b656%3B%22%20vertex%3D%221%22%20parent%3D%221%22%3E%3CmxGeometry%20x%3D%22280%22%20y%3D%2290%22%20width%3D%2280%22%20height%3D%2220%22%20as%3D%22geometry%22%2F%3E%3C%2FmxCell%3E%3CmxCell%20id%3D%223%22%20value%3D%22Silver%20Layer%22%20style%3D%22rounded%3D0%3BwhiteSpace%3Dwrap%3Bhtml%3D1%3BfillColor%3D%23d5e8d4%3BstrokeColor%3D%2382b366%3B%22%20vertex%3D%221%22%20parent%3D%221%22%3E%3CmxGeometry%20x%3D%22400%22%20y%3D%2290%22%20width%3D%2280%22%20height%3D%2220%22%20as%3D%22geometry%22%2F%3E%3C%2FmxCell%3E%3CmxCell%20id%3D%224%22%20value%3D%22Gold%20Layer%22%20style%3D%22rounded%3D0%3BwhiteSpace%3Dwrap%3Bhtml%3D1%3BfillColor%3D%23fad9d5%3BstrokeColor%3D%23ae4132%3B%22%20vertex%3D%221%22%20parent%3D%221%22%3E%3CmxGeometry%20x%3D%22520%22%20y%3D%2290%22%20width%3D%2280%22%20height%3D%2220%22%20as%3D%22geometry%22%2F%3E%3C%2FmxCell%3E%3C%2Froot%3E%3C%2FmxGraphModel%3E&lt;/span&gt;" style="rounded=0;whiteSpace=wrap;html=1;fillColor=none;dashed=1;strokeColor=#656565;glass=1;shadow=1;" vertex="1" parent="1">
          <mxGeometry x="230" y="30" width="430" height="480" as="geometry" />
        </mxCell>
        <mxCell id="iuHo2Aqis808Pn7AMfoR-10" value="" style="rounded=1;whiteSpace=wrap;html=1;fillColor=none;dashed=1;strokeColor=#656565;" vertex="1" parent="1">
          <mxGeometry x="697" y="31" width="120" height="479" as="geometry" />
        </mxCell>
        <mxCell id="iuHo2Aqis808Pn7AMfoR-11" value="Data Warehouse" style="rounded=0;whiteSpace=wrap;html=1;fillColor=default;strokeColor=none;fontSize=24;" vertex="1" parent="1">
          <mxGeometry x="340" y="5" width="210" height="45" as="geometry" />
        </mxCell>
        <mxCell id="iuHo2Aqis808Pn7AMfoR-12" value="Consume" style="rounded=0;whiteSpace=wrap;html=1;fillColor=default;strokeColor=none;fontSize=24;" vertex="1" parent="1">
          <mxGeometry x="705" y="12.5" width="110" height="30" as="geometry" />
        </mxCell>
        <mxCell id="iuHo2Aqis808Pn7AMfoR-15" value="" style="rounded=0;whiteSpace=wrap;html=1;strokeColor=#FF8000;" vertex="1" parent="1">
          <mxGeometry x="260" y="80" width="105" height="400" as="geometry" />
        </mxCell>
        <mxCell id="iuHo2Aqis808Pn7AMfoR-17" value="" style="rounded=0;whiteSpace=wrap;html=1;" vertex="1" parent="1">
          <mxGeometry x="400" y="80" width="100" height="400" as="geometry" />
        </mxCell>
        <mxCell id="iuHo2Aqis808Pn7AMfoR-19" value="" style="rounded=0;whiteSpace=wrap;html=1;" vertex="1" parent="1">
          <mxGeometry x="544" y="80" width="106" height="400" as="geometry" />
        </mxCell>
        <mxCell id="iuHo2Aqis808Pn7AMfoR-20" value="CRM" style="image;aspect=fixed;html=1;points=[];align=center;fontSize=12;image=img/lib/azure2/general/Folder_Blank.svg;" vertex="1" parent="1">
          <mxGeometry x="110" y="90" width="46.82" height="38" as="geometry" />
        </mxCell>
        <mxCell id="iuHo2Aqis808Pn7AMfoR-22" value="ERP&lt;div&gt;&lt;br&gt;&lt;/div&gt;" style="image;aspect=fixed;html=1;points=[];align=center;fontSize=12;image=img/lib/azure2/general/Folder_Blank.svg;" vertex="1" parent="1">
          <mxGeometry x="110" y="161.92000000000002" width="46.92" height="38.08" as="geometry" />
        </mxCell>
        <mxCell id="iuHo2Aqis808Pn7AMfoR-25" value="&lt;b&gt;Object Type&lt;/b&gt;:-Csv File&lt;br&gt;&lt;b&gt;Interface&lt;/b&gt;:- file&amp;nbsp; in folder" style="text;html=1;align=left;verticalAlign=middle;whiteSpace=wrap;rounded=0;fontSize=10;" vertex="1" parent="1">
          <mxGeometry x="83.46" y="300" width="126.54" height="40" as="geometry" />
        </mxCell>
        <mxCell id="iuHo2Aqis808Pn7AMfoR-27" value="" style="html=1;verticalLabelPosition=bottom;align=center;labelBackgroundColor=#ffffff;verticalAlign=top;strokeWidth=2;strokeColor=#d6b656;shadow=0;dashed=0;shape=mxgraph.ios7.icons.data;fillColor=#fff2cc;" vertex="1" parent="1">
          <mxGeometry x="294" y="132" width="32" height="50" as="geometry" />
        </mxCell>
        <mxCell id="iuHo2Aqis808Pn7AMfoR-28" value="" style="html=1;verticalLabelPosition=bottom;align=center;labelBackgroundColor=#ffffff;verticalAlign=top;strokeWidth=2;strokeColor=#6c8ebf;shadow=0;dashed=0;shape=mxgraph.ios7.icons.data;fillColor=#dae8fc;" vertex="1" parent="1">
          <mxGeometry x="428" y="132" width="32" height="50" as="geometry" />
        </mxCell>
        <mxCell id="iuHo2Aqis808Pn7AMfoR-30" value="" style="html=1;verticalLabelPosition=bottom;align=center;labelBackgroundColor=#ffffff;verticalAlign=top;strokeWidth=2;strokeColor=#b85450;shadow=0;dashed=0;shape=mxgraph.ios7.icons.data;fillColor=#f8cecc;" vertex="1" parent="1">
          <mxGeometry x="580" y="132" width="32" height="50" as="geometry" />
        </mxCell>
        <mxCell id="iuHo2Aqis808Pn7AMfoR-36" style="edgeStyle=orthogonalEdgeStyle;rounded=0;orthogonalLoop=1;jettySize=auto;html=1;exitX=0;exitY=0;exitDx=30;exitDy=15.4;exitPerimeter=0;entryX=0;entryY=0;entryDx=30;entryDy=22;entryPerimeter=0;" edge="1" parent="1">
          <mxGeometry relative="1" as="geometry">
            <mxPoint x="220" y="229.39999999999998" as="sourcePoint" />
            <mxPoint x="220" y="236" as="targetPoint" />
          </mxGeometry>
        </mxCell>
        <mxCell id="iuHo2Aqis808Pn7AMfoR-40" value="Raw Data" style="text;html=1;align=center;verticalAlign=middle;whiteSpace=wrap;rounded=0;" vertex="1" parent="1">
          <mxGeometry x="294" y="192.08" width="60" height="17.92" as="geometry" />
        </mxCell>
        <mxCell id="iuHo2Aqis808Pn7AMfoR-41" value="Cleaned Standardized Data" style="text;html=1;align=center;verticalAlign=middle;whiteSpace=wrap;rounded=0;" vertex="1" parent="1">
          <mxGeometry x="410" y="200" width="90" height="21.92" as="geometry" />
        </mxCell>
        <mxCell id="iuHo2Aqis808Pn7AMfoR-42" value="Bussiness- Ready&amp;nbsp; Data" style="text;html=1;align=center;verticalAlign=middle;whiteSpace=wrap;rounded=0;" vertex="1" parent="1">
          <mxGeometry x="567" y="200.00000000000003" width="60" height="21.92" as="geometry" />
        </mxCell>
        <mxCell id="iuHo2Aqis808Pn7AMfoR-44" value="" style="image;aspect=fixed;html=1;points=[];align=center;fontSize=12;image=img/lib/azure2/power_platform/PowerBI.svg;" vertex="1" parent="1">
          <mxGeometry x="731.5" y="132" width="51" height="68" as="geometry" />
        </mxCell>
        <mxCell id="vEyQWPGZLK4dTJMjLIgC-110" value="Bronze Layer" style="rounded=0;whiteSpace=wrap;html=1;fillColor=#fff2cc;strokeColor=#d6b656;" vertex="1" parent="1">
          <mxGeometry x="260" y="50" width="110" height="20" as="geometry" />
        </mxCell>
        <mxCell id="vEyQWPGZLK4dTJMjLIgC-111" value="Silver Layer" style="rounded=0;whiteSpace=wrap;html=1;fillColor=#d5e8d4;strokeColor=#82b366;" vertex="1" parent="1">
          <mxGeometry x="400" y="50" width="100" height="20" as="geometry" />
        </mxCell>
        <mxCell id="vEyQWPGZLK4dTJMjLIgC-112" value="Gold Layer" style="rounded=0;whiteSpace=wrap;html=1;fillColor=#fad9d5;strokeColor=#ae4132;" vertex="1" parent="1">
          <mxGeometry x="544" y="50" width="106" height="20" as="geometry" />
        </mxCell>
        <mxCell id="vEyQWPGZLK4dTJMjLIgC-113" value="" style="html=1;shadow=0;dashed=0;align=center;verticalAlign=middle;shape=mxgraph.arrows2.arrow;dy=0.6;dx=40;notch=0;fillColor=#d5e8d4;strokeColor=#82b366;" vertex="1" parent="1">
          <mxGeometry x="190" y="146" width="70" height="22" as="geometry" />
        </mxCell>
        <mxCell id="vEyQWPGZLK4dTJMjLIgC-114" value="" style="html=1;shadow=0;dashed=0;align=center;verticalAlign=middle;shape=mxgraph.arrows2.arrow;dy=0.6;dx=40;notch=0;fillColor=#d5e8d4;strokeColor=#82b366;" vertex="1" parent="1">
          <mxGeometry x="630" y="146" width="70" height="22" as="geometry" />
        </mxCell>
        <mxCell id="vEyQWPGZLK4dTJMjLIgC-115" value="" style="html=1;shadow=0;dashed=0;align=center;verticalAlign=middle;shape=mxgraph.arrows2.arrow;dy=0.6;dx=40;notch=0;fillColor=#d5e8d4;strokeColor=#82b366;" vertex="1" parent="1">
          <mxGeometry x="350" y="146" width="70" height="22" as="geometry" />
        </mxCell>
        <mxCell id="vEyQWPGZLK4dTJMjLIgC-116" value="" style="html=1;shadow=0;dashed=0;align=center;verticalAlign=middle;shape=mxgraph.arrows2.arrow;dy=0.6;dx=40;notch=0;fillColor=#d5e8d4;strokeColor=#82b366;" vertex="1" parent="1">
          <mxGeometry x="474" y="146" width="70" height="22" as="geometry" />
        </mxCell>
        <mxCell id="vEyQWPGZLK4dTJMjLIgC-119" value="&lt;font style=&quot;font-size: 9px;&quot;&gt;&lt;b&gt;object type: &lt;/b&gt;table&lt;/font&gt;" style="text;html=1;align=center;verticalAlign=middle;whiteSpace=wrap;rounded=0;" vertex="1" parent="1">
          <mxGeometry x="265" y="240" width="75" height="10" as="geometry" />
        </mxCell>
        <mxCell id="vEyQWPGZLK4dTJMjLIgC-120" value="&lt;font style=&quot;font-size: 9px;&quot;&gt;&lt;b&gt;object type: &lt;/b&gt;table&lt;/font&gt;" style="text;html=1;align=center;verticalAlign=middle;whiteSpace=wrap;rounded=0;" vertex="1" parent="1">
          <mxGeometry x="402.5" y="240" width="75" height="10" as="geometry" />
        </mxCell>
        <mxCell id="vEyQWPGZLK4dTJMjLIgC-121" value="&lt;font style=&quot;font-size: 9px;&quot;&gt;&lt;b&gt;object type: &lt;/b&gt;view&lt;/font&gt;" style="text;html=1;align=center;verticalAlign=middle;whiteSpace=wrap;rounded=0;" vertex="1" parent="1">
          <mxGeometry x="550" y="240" width="75" height="10" as="geometry" />
        </mxCell>
        <mxCell id="vEyQWPGZLK4dTJMjLIgC-122" value="&lt;b&gt;Load&lt;/b&gt;" style="text;html=1;align=center;verticalAlign=middle;whiteSpace=wrap;rounded=0;" vertex="1" parent="1">
          <mxGeometry x="260" y="250" width="60" height="20" as="geometry" />
        </mxCell>
        <mxCell id="vEyQWPGZLK4dTJMjLIgC-123" value="&lt;b&gt;Load&lt;/b&gt;" style="text;html=1;align=center;verticalAlign=middle;whiteSpace=wrap;rounded=0;" vertex="1" parent="1">
          <mxGeometry x="390" y="250" width="60" height="20" as="geometry" />
        </mxCell>
        <mxCell id="vEyQWPGZLK4dTJMjLIgC-124" value="No&amp;nbsp;&lt;b&gt;Load&lt;/b&gt;" style="text;html=1;align=center;verticalAlign=middle;whiteSpace=wrap;rounded=0;" vertex="1" parent="1">
          <mxGeometry x="550" y="260" width="60" height="20" as="geometry" />
        </mxCell>
        <mxCell id="vEyQWPGZLK4dTJMjLIgC-125" value="&lt;ul&gt;&lt;li&gt;&lt;font style=&quot;font-size: 7px;&quot;&gt;Batch Processing&lt;/font&gt;&lt;/li&gt;&lt;li&gt;&lt;font style=&quot;font-size: 7px;&quot;&gt;Full Load&lt;/font&gt;&lt;/li&gt;&lt;li&gt;&lt;font style=&quot;font-size: 7px;&quot;&gt;Truncate &amp;amp; Insert&lt;/font&gt;&lt;/li&gt;&lt;/ul&gt;" style="text;strokeColor=none;fillColor=none;html=1;whiteSpace=wrap;verticalAlign=middle;overflow=hidden;" vertex="1" parent="1">
          <mxGeometry x="240" y="260" width="100" height="60" as="geometry" />
        </mxCell>
        <mxCell id="vEyQWPGZLK4dTJMjLIgC-127" value="&lt;font style=&quot;font-size: 9px;&quot;&gt;&lt;b style=&quot;&quot;&gt;Data Model&lt;/b&gt;: None (as-is)&lt;/font&gt;" style="text;html=1;align=center;verticalAlign=middle;whiteSpace=wrap;rounded=0;" vertex="1" parent="1">
          <mxGeometry x="271.25" y="380" width="77.5" height="30" as="geometry" />
        </mxCell>
        <mxCell id="vEyQWPGZLK4dTJMjLIgC-128" value="&lt;font style=&quot;font-size: 9px;&quot;&gt;&lt;b style=&quot;&quot;&gt;Transformations&lt;/b&gt;: None&lt;/font&gt;" style="text;html=1;align=center;verticalAlign=middle;whiteSpace=wrap;rounded=0;" vertex="1" parent="1">
          <mxGeometry x="260" y="330" width="90" height="30" as="geometry" />
        </mxCell>
        <mxCell id="vEyQWPGZLK4dTJMjLIgC-131" value="&lt;ul&gt;&lt;li&gt;&lt;font style=&quot;font-size: 7px;&quot;&gt;Batch Processing&lt;/font&gt;&lt;/li&gt;&lt;li&gt;&lt;font style=&quot;font-size: 7px;&quot;&gt;Full Load&lt;/font&gt;&lt;/li&gt;&lt;li&gt;&lt;font style=&quot;font-size: 7px;&quot;&gt;Truncate &amp;amp; Insert&lt;/font&gt;&lt;/li&gt;&lt;/ul&gt;" style="text;strokeColor=none;fillColor=none;html=1;whiteSpace=wrap;verticalAlign=middle;overflow=hidden;" vertex="1" parent="1">
          <mxGeometry x="377.5" y="255" width="100" height="85" as="geometry" />
        </mxCell>
        <mxCell id="vEyQWPGZLK4dTJMjLIgC-132" value="&lt;b style=&quot;text-align: center;&quot;&gt;&lt;font style=&quot;font-size: 10px;&quot;&gt;Transformations&lt;/font&gt;&lt;/b&gt;" style="swimlane;fontStyle=0;childLayout=stackLayout;horizontal=1;startSize=30;horizontalStack=0;resizeParent=1;resizeParentMax=0;resizeLast=0;collapsible=1;marginBottom=0;whiteSpace=wrap;html=1;dashed=1;dashPattern=1 4;strokeColor=#FFFFFF;align=left;" vertex="1" parent="1">
          <mxGeometry x="400" y="320" width="100" height="90" as="geometry">
            <mxRectangle x="402.5" y="320" width="120" height="30" as="alternateBounds" />
          </mxGeometry>
        </mxCell>
        <mxCell id="vEyQWPGZLK4dTJMjLIgC-133" value="&lt;font style=&quot;font-size: 9px;&quot;&gt;Data Cleansing&lt;/font&gt;" style="text;strokeColor=none;fillColor=none;align=left;verticalAlign=middle;spacingLeft=4;spacingRight=4;overflow=hidden;points=[[0,0.5],[1,0.5]];portConstraint=eastwest;rotatable=0;whiteSpace=wrap;html=1;" vertex="1" parent="vEyQWPGZLK4dTJMjLIgC-132">
          <mxGeometry y="30" width="100" height="20" as="geometry" />
        </mxCell>
        <mxCell id="vEyQWPGZLK4dTJMjLIgC-135" value="&lt;font style=&quot;font-size: 9px;&quot;&gt;Data Normalization&lt;/font&gt;" style="text;strokeColor=none;fillColor=none;align=left;verticalAlign=middle;spacingLeft=4;spacingRight=4;overflow=hidden;points=[[0,0.5],[1,0.5]];portConstraint=eastwest;rotatable=0;whiteSpace=wrap;html=1;dashed=1;dashPattern=1 1;" vertex="1" parent="vEyQWPGZLK4dTJMjLIgC-132">
          <mxGeometry y="50" width="100" height="20" as="geometry" />
        </mxCell>
        <mxCell id="vEyQWPGZLK4dTJMjLIgC-134" value="&lt;font style=&quot;font-size: 9px;&quot;&gt;Data Standardization&lt;/font&gt;" style="text;strokeColor=none;fillColor=none;align=left;verticalAlign=middle;spacingLeft=4;spacingRight=4;overflow=hidden;points=[[0,0.5],[1,0.5]];portConstraint=eastwest;rotatable=0;whiteSpace=wrap;html=1;" vertex="1" parent="vEyQWPGZLK4dTJMjLIgC-132">
          <mxGeometry y="70" width="100" height="20" as="geometry" />
        </mxCell>
        <mxCell id="vEyQWPGZLK4dTJMjLIgC-136" value="&lt;font style=&quot;font-size: 9px;&quot;&gt;Derived Columns&lt;/font&gt;" style="text;strokeColor=none;fillColor=none;align=left;verticalAlign=middle;spacingLeft=4;spacingRight=4;overflow=hidden;points=[[0,0.5],[1,0.5]];portConstraint=eastwest;rotatable=0;whiteSpace=wrap;html=1;" vertex="1" parent="1">
          <mxGeometry x="400" y="410" width="130" height="20" as="geometry" />
        </mxCell>
        <mxCell id="vEyQWPGZLK4dTJMjLIgC-137" value="&lt;font style=&quot;font-size: 9px;&quot;&gt;Data Enrichment&lt;/font&gt;" style="text;strokeColor=none;fillColor=none;align=left;verticalAlign=middle;spacingLeft=4;spacingRight=4;overflow=hidden;points=[[0,0.5],[1,0.5]];portConstraint=eastwest;rotatable=0;whiteSpace=wrap;html=1;" vertex="1" parent="1">
          <mxGeometry x="400" y="430" width="130" height="20" as="geometry" />
        </mxCell>
        <mxCell id="vEyQWPGZLK4dTJMjLIgC-138" value="&lt;font style=&quot;font-size: 9px;&quot;&gt;&lt;b style=&quot;&quot;&gt;Data Model&lt;/b&gt;: None (as-is)&lt;/font&gt;" style="text;html=1;align=center;verticalAlign=middle;whiteSpace=wrap;rounded=0;" vertex="1" parent="1">
          <mxGeometry x="400" y="450" width="92.5" height="30" as="geometry" />
        </mxCell>
        <mxCell id="vEyQWPGZLK4dTJMjLIgC-139" value="&lt;div style=&quot;&quot;&gt;&lt;b&gt;&lt;font style=&quot;&quot;&gt;&lt;span style=&quot;background-color: transparent; color: light-dark(rgb(0, 0, 0), rgb(255, 255, 255));&quot;&gt;&lt;font style=&quot;font-size: 10px;&quot;&gt;Transformations&lt;/font&gt;&lt;/span&gt;&lt;span style=&quot;font-size: 9px; background-color: transparent; color: light-dark(rgb(0, 0, 0), rgb(255, 255, 255));&quot;&gt;:&lt;/span&gt;&lt;/font&gt;&lt;/b&gt;&lt;/div&gt;" style="swimlane;fontStyle=0;childLayout=stackLayout;horizontal=1;startSize=30;horizontalStack=0;resizeParent=1;resizeParentMax=0;resizeLast=0;collapsible=1;marginBottom=0;whiteSpace=wrap;html=1;align=left;dashed=1;dashPattern=1 2;strokeColor=#FFFFFF;" vertex="1" parent="1">
          <mxGeometry x="550" y="280" width="90" height="180" as="geometry">
            <mxRectangle x="550" y="280" width="120" height="30" as="alternateBounds" />
          </mxGeometry>
        </mxCell>
        <mxCell id="vEyQWPGZLK4dTJMjLIgC-140" value="&lt;font style=&quot;font-size: 9px;&quot;&gt;Data Integrations&lt;/font&gt;" style="text;strokeColor=none;fillColor=none;align=left;verticalAlign=middle;spacingLeft=4;spacingRight=4;overflow=hidden;points=[[0,0.5],[1,0.5]];portConstraint=eastwest;rotatable=0;whiteSpace=wrap;html=1;" vertex="1" parent="vEyQWPGZLK4dTJMjLIgC-139">
          <mxGeometry y="30" width="90" height="20" as="geometry" />
        </mxCell>
        <mxCell id="vEyQWPGZLK4dTJMjLIgC-141" value="&lt;font style=&quot;font-size: 9px;&quot;&gt;Aggregations&lt;/font&gt;" style="text;strokeColor=none;fillColor=none;align=left;verticalAlign=middle;spacingLeft=4;spacingRight=4;overflow=hidden;points=[[0,0.5],[1,0.5]];portConstraint=eastwest;rotatable=0;whiteSpace=wrap;html=1;" vertex="1" parent="vEyQWPGZLK4dTJMjLIgC-139">
          <mxGeometry y="50" width="90" height="20" as="geometry" />
        </mxCell>
        <mxCell id="vEyQWPGZLK4dTJMjLIgC-142" value="&lt;font style=&quot;font-size: 9px;&quot;&gt;Business Logics&lt;/font&gt;" style="text;strokeColor=none;fillColor=none;align=left;verticalAlign=middle;spacingLeft=4;spacingRight=4;overflow=hidden;points=[[0,0.5],[1,0.5]];portConstraint=eastwest;rotatable=0;whiteSpace=wrap;html=1;" vertex="1" parent="vEyQWPGZLK4dTJMjLIgC-139">
          <mxGeometry y="70" width="90" height="20" as="geometry" />
        </mxCell>
        <mxCell id="vEyQWPGZLK4dTJMjLIgC-147" value="&lt;div style=&quot;&quot;&gt;&lt;font style=&quot;font-size: 9px;&quot;&gt;&lt;b style=&quot;&quot;&gt;Data Model&lt;/b&gt;:&lt;/font&gt;&lt;/div&gt;" style="swimlane;fontStyle=0;childLayout=stackLayout;horizontal=1;startSize=30;horizontalStack=0;resizeParent=1;resizeParentMax=0;resizeLast=0;collapsible=1;marginBottom=0;whiteSpace=wrap;html=1;align=left;dashed=1;dashPattern=1 2;strokeColor=#FFFFFF;" vertex="1" parent="vEyQWPGZLK4dTJMjLIgC-139">
          <mxGeometry y="90" width="90" height="90" as="geometry" />
        </mxCell>
        <mxCell id="vEyQWPGZLK4dTJMjLIgC-148" value="&lt;font style=&quot;font-size: 9px;&quot;&gt;Star Schema&lt;/font&gt;" style="text;strokeColor=none;fillColor=none;align=left;verticalAlign=middle;spacingLeft=4;spacingRight=4;overflow=hidden;points=[[0,0.5],[1,0.5]];portConstraint=eastwest;rotatable=0;whiteSpace=wrap;html=1;" vertex="1" parent="vEyQWPGZLK4dTJMjLIgC-147">
          <mxGeometry y="30" width="90" height="20" as="geometry" />
        </mxCell>
        <mxCell id="vEyQWPGZLK4dTJMjLIgC-149" value="&lt;font style=&quot;font-size: 9px;&quot;&gt;Flat Table&lt;/font&gt;" style="text;strokeColor=none;fillColor=none;align=left;verticalAlign=middle;spacingLeft=4;spacingRight=4;overflow=hidden;points=[[0,0.5],[1,0.5]];portConstraint=eastwest;rotatable=0;whiteSpace=wrap;html=1;" vertex="1" parent="vEyQWPGZLK4dTJMjLIgC-147">
          <mxGeometry y="50" width="90" height="20" as="geometry" />
        </mxCell>
        <mxCell id="vEyQWPGZLK4dTJMjLIgC-150" value="&lt;font style=&quot;font-size: 9px;&quot;&gt;Aggregated Table&lt;/font&gt;" style="text;strokeColor=none;fillColor=none;align=left;verticalAlign=middle;spacingLeft=4;spacingRight=4;overflow=hidden;points=[[0,0.5],[1,0.5]];portConstraint=eastwest;rotatable=0;whiteSpace=wrap;html=1;" vertex="1" parent="vEyQWPGZLK4dTJMjLIgC-147">
          <mxGeometry y="70" width="90" height="20" as="geometry" />
        </mxCell>
        <mxCell id="vEyQWPGZLK4dTJMjLIgC-153" value="" style="image;sketch=0;aspect=fixed;html=1;points=[];align=center;fontSize=12;image=img/lib/mscae/SQL_Servers.svg;" vertex="1" parent="1">
          <mxGeometry x="215" y="-7.5" width="50" height="50" as="geometry" />
        </mxCell>
        <mxCell id="vEyQWPGZLK4dTJMjLIgC-154" value="" style="points=[];aspect=fixed;html=1;align=center;shadow=0;dashed=0;fillColor=#FF6A00;strokeColor=none;shape=mxgraph.alibaba_cloud.quickbi;" vertex="1" parent="1">
          <mxGeometry x="737" y="246" width="47.7" height="48" as="geometry" />
        </mxCell>
      </root>
    </mxGraphModel>
  </diagram>
</mxfile>
